<svg preserveAspectRatio="none" width="100%" height="100%" overflow="visible" style="display: block;" viewBox="0 0 20 21" fill="none" xmlns="http://www.w3.org/2000/svg">
<path id="Icon" d="M2 21C1.45 21 0.979167 20.8042 0.5875 20.4125C0.195833 20.0208 0 19.55 0 19V7C0 6.58333 0.1125 6.20833 0.3375 5.875C0.5625 5.54167 0.866667 5.3 1.25 5.15L13.9 0L14.55 1.65L6.3 5H18C18.55 5 19.0208 5.19583 19.4125 5.5875C19.8042 5.97917 20 6.45 20 7V19C20 19.55 19.8042 20.0208 19.4125 20.4125C19.0208 20.8042 18.55 21 18 21H2V21M2 19H18V19V19V12H2V19V19V19V19M6 18C6.7 18 7.29167 17.7583 7.775 17.275C8.25833 16.7917 8.5 16.2 8.5 15.5C8.5 14.8 8.25833 14.2083 7.775 13.725C7.29167 13.2417 6.7 13 6 13C5.3 13 4.70833 13.2417 4.225 13.725C3.74167 14.2083 3.5 14.8 3.5 15.5C3.5 16.2 3.74167 16.7917 4.225 17.275C4.70833 17.7583 5.3 18 6 18V18M2 10H14V8H16V10H18V7V7V7H2V7V7V10V10M2 19V19V19V12V12V19V19V19V19V19" fill="var(--fill-0, #0C6780)"/>
</svg>
