<svg preserveAspectRatio="none" width="100%" height="100%" overflow="visible" style="display: block;" viewBox="0 0 48 36" fill="none" xmlns="http://www.w3.org/2000/svg">
<g id="Overlay">
<rect width="48" height="36" rx="12" fill="var(--fill-0, #9AE1FF)" fill-opacity="0.2"/>
<path id="Icon" d="M12 24V22.425C12 21.7083 12.3667 21.125 13.1 20.675C13.8333 20.225 14.8 20 16 20C16.2167 20 16.425 20.0042 16.625 20.0125C16.825 20.0208 17.0167 20.0417 17.2 20.075C16.9667 20.425 16.7917 20.7917 16.675 21.175C16.5583 21.5583 16.5 21.9583 16.5 22.375V24H12V24M18 24V22.375C18 21.8417 18.1458 21.3542 18.4375 20.9125C18.7292 20.4708 19.1417 20.0833 19.675 19.75C20.2083 19.4167 20.8458 19.1667 21.5875 19C22.3292 18.8333 23.1333 18.75 24 18.75C24.8833 18.75 25.6958 18.8333 26.4375 19C27.1792 19.1667 27.8167 19.4167 28.35 19.75C28.8833 20.0833 29.2917 20.4708 29.575 20.9125C29.8583 21.3542 30 21.8417 30 22.375V24H18V24M31.5 24V22.375C31.5 21.9417 31.4458 21.5333 31.3375 21.15C31.2292 20.7667 31.0667 20.4083 30.85 20.075C31.0333 20.0417 31.2208 20.0208 31.4125 20.0125C31.6042 20.0042 31.8 20 32 20C33.2 20 34.1667 20.2208 34.9 20.6625C35.6333 21.1042 36 21.6917 36 22.425V24H31.5V24M20.125 22H27.9V22C27.7333 21.6667 27.2708 21.375 26.5125 21.125C25.7542 20.875 24.9167 20.75 24 20.75C23.0833 20.75 22.2458 20.875 21.4875 21.125C20.7292 21.375 20.275 21.6667 20.125 22V22V22M16 19C15.45 19 14.9792 18.8042 14.5875 18.4125C14.1958 18.0208 14 17.55 14 17C14 16.4333 14.1958 15.9583 14.5875 15.575C14.9792 15.1917 15.45 15 16 15C16.5667 15 17.0417 15.1917 17.425 15.575C17.8083 15.9583 18 16.4333 18 17C18 17.55 17.8083 18.0208 17.425 18.4125C17.0417 18.8042 16.5667 19 16 19V19M32 19C31.45 19 30.9792 18.8042 30.5875 18.4125C30.1958 18.0208 30 17.55 30 17C30 16.4333 30.1958 15.9583 30.5875 15.575C30.9792 15.1917 31.45 15 32 15C32.5667 15 33.0417 15.1917 33.425 15.575C33.8083 15.9583 34 16.4333 34 17C34 17.55 33.8083 18.0208 33.425 18.4125C33.0417 18.8042 32.5667 19 32 19V19M24 18C23.1667 18 22.4583 17.7083 21.875 17.125C21.2917 16.5417 21 15.8333 21 15C21 14.15 21.2917 13.4375 21.875 12.8625C22.4583 12.2875 23.1667 12 24 12C24.85 12 25.5625 12.2875 26.1375 12.8625C26.7125 13.4375 27 14.15 27 15C27 15.8333 26.7125 16.5417 26.1375 17.125C25.5625 17.7083 24.85 18 24 18V18M24 16C24.2833 16 24.5208 15.9042 24.7125 15.7125C24.9042 15.5208 25 15.2833 25 15C25 14.7167 24.9042 14.4792 24.7125 14.2875C24.5208 14.0958 24.2833 14 24 14C23.7167 14 23.4792 14.0958 23.2875 14.2875C23.0958 14.4792 23 14.7167 23 15C23 15.2833 23.0958 15.5208 23.2875 15.7125C23.4792 15.9042 23.7167 16 24 16V16M24.025 22V22V22V22V22V22V22V22V22M24 15V15V15V15V15V15V15V15V15V15" fill="var(--fill-0, #0C6780)"/>
</g>
</svg>
